<?xml version="1.0" encoding="utf-8"?>
<!-- Generator: Adobe Illustrator 24.0.1, SVG Export Plug-In . SVG Version: 6.00 Build 0)  -->
<svg version="1.1" id="Layer_1" xmlns="http://www.w3.org/2000/svg" xmlns:xlink="http://www.w3.org/1999/xlink" x="0px" y="0px"
	 viewBox="0 0 486.19 340.84" style="enable-background:new 0 0 486.19 340.84;" xml:space="preserve">
<rect style="fill:none;" width="486.19" height="340.84"/>
<g>
	<g>
		<polygon style="fill:#FFFFFF;" points="205.61,120.2 203.69,222.66 221.48,221.26 226.3,119.85 		"/>
		<path style="fill:#FFFFFF;" d="M182.12,117.12c0,0-26.36,24.44-46.08,42.59c16.31,15.52,34.33,29.12,27.26,37.42
			c-7.08,8.31-18.57,1.09-28.29-7.94c0,0-16.92,11.22-16.97,11.13c9.05,15.14,1.63,27.74-8.98,33.2
			c-3.47,1.79-10.96,3.37-19.97,1.55l-2.31,16.43c9.32,3.66,24.84,3.32,32.59-0.54c13.32-6.62,20.33-17.03,20.03-34.27
			c13.85,7.91,34.39,4.51,41.71-5.09c7.58-9.94,16.04-25.73-19.21-51.62c10.94-7.94,32.38-22.22,32.38-22.22L182.12,117.12z"/>
		<path style="fill:#231F20;" d="M324.02,203.06"/>
		<circle style="fill:#FFFFFF;" cx="330.82" cy="241.39" r="11.78"/>
		<g>
			<g>
				<path style="fill:none;" d="M313.98,154.49c-0.07,0.02-0.15,0.03-0.22,0.05"/>
			</g>
		</g>
		<path style="fill:#FFFFFF;" d="M345.18,160.83c-7.57-4.68-15.28-6.47-22.91-6.47c-8.76,0-17.44,2.36-25.75,5.44
			c0,0.08,4.35,11.45,7.25,19.98c5.7-2.29,12.54-4.07,18.83-4.07c9.74,0,18.21,4.24,19.31,17.38c0,0.04-11.67,5.49-47.52,6.2
			c-2.99-15.04-12.38-34.69-35.55-31.73c-18.97,2.43-25.64,33.06-19.05,43.92c5.38,8.87,16.58,11.79,37.81,10.04
			c0.02,17.1-23.97,16.96-38.15,9.37c-2.77,5.68-7.63,17.47-7.63,17.47s19.17,7.99,34.87,5.53c20.47-3.21,28.18-17.65,29.25-34.17
			c0.59,0,1.19,0.01,1.77,0.01c28.69,0,49.82-4.58,64.09-12.51C363.1,194.27,362.46,171.52,345.18,160.83z M274.58,202.5
			c-6.36,0.7-17.77,0.75-18.73-3.22c-1.82-7.51,2.23-12.25,5.78-13.11C266.76,184.94,275.37,185.4,274.58,202.5z"/>
		<g>
			<g>
				<path style="fill:#DA2C35;" d="M387.67,141.52c0,0-0.61-0.45-1.69-1.11c-5.95-3.62-26.13-13.54-35.83,11.22
					c-1.72-1.05-3.48-1.99-5.27-2.81c-0.13-0.06-0.25-0.12-0.38-0.18c-0.22-0.1-0.43-0.19-0.64-0.29l-3.47-15.27
					c0-0.02-0.01-0.03-0.01-0.04v-0.03l-0.78-3.41c0.05-0.03,0.1-0.07,0.15-0.09c4.8-3.08,9.14-5.19,13.07-6.53
					c22.83-7.79,31.84,10.31,34.18,16.53C387.46,140.72,387.67,141.49,387.67,141.52z"/>
				<path style="fill:#FFCC07;" d="M374.69,107.14c0,0-0.6,0.01-1.64,0.18c-3.73,0.6-13.08,3.36-20.23,15.67c-3.46,5.94-6.4,14.59-7.95,25.84
					c-0.13-0.06-0.25-0.12-0.38-0.18c-0.22-0.1-0.43-0.19-0.64-0.29c-0.8-0.34-1.59-0.67-2.4-0.96c-3.81-1.43-7.77-2.36-11.87-2.8
					c-2.19-6.65,1.57-9.71,1.57-9.71c-1.56-3.71,0.16-8.78-1.55-11.67c1.62-3.09,3.39-5.71,5.27-7.92c13.56-16,32.51-10.8,38.17-8.8
					C374.04,106.86,374.62,107.11,374.69,107.14z"/>
				<path style="fill:#FFCC07;" d="M320.64,144.39c-0.34,0.03-0.67,0.04-1.01,0.08c-0.76,0.05-1.52,0.12-2.29,0.21
					c-9.17-22.17-28.32-13.44-32.87-10.98l-0.02,0.01c-0.63,0.34-0.97,0.56-0.97,0.56c0.02-0.03,0.22-0.41,0.59-1.05
					c2.75-4.71,15.01-23.26,34.1-12.25c0.99,0.57,2,1.22,3.03,1.96C321.63,124.9,320.54,139.24,320.64,144.39z"/>
				<path style="fill:#DA2C35;" d="M341.46,147.41c-3.81-1.43-7.77-2.36-11.87-2.8c-1.85-0.21-3.74-0.31-5.64-0.31c-1.09,0-2.2,0.03-3.31,0.09
					c-0.34,0.03-0.67,0.04-1.01,0.08c0.54-9.67-0.14-17.38-1.47-23.5c-3.08-14.21-9.64-19.92-12.74-21.9
					c-1-0.65-1.63-0.91-1.69-0.94c0.06-0.01,0.76-0.11,1.94-0.17c5.33-0.23,20.42,0.65,29.2,17.36c2.03,3.84,3.72,8.52,4.87,14.21
					c0.23,1.12,0.44,2.3,0.63,3.51v0.03c0,0.02,0.01,0.03,0.01,0.04C341.04,137.34,341.43,142.09,341.46,147.41z"/>
				<path style="fill:#D70F19;" d="M387.07,139.12L387.07,139.12z"/>
			</g>
			<g>
				<g>
					<path style="fill:#D70F19;" d="M386.74,138.81L386.74,138.81z"/>
				</g>
			</g>
		</g>
		<g>
			<g>
				<g>
					<path style="fill:#D70F19;" d="M387.17,139.01L387.17,139.01z"/>
				</g>
			</g>
			<g>
				<path style="fill:#189338;" d="M291.72,138.56L291.72,138.56c-0.27-3.42-3.54-5.78-6.87-4.95l-1.06,0.26l0.1-1.09
					c0.3-3.42-2.54-6.29-5.95-6.02v0c-3.05,0.24-5.34,2.91-5.1,5.96l0.96,12.42c0.02,0.21,0.2,0.36,0.4,0.34l12.43-0.97
					C289.67,144.28,291.96,141.61,291.72,138.56z"/>
				<path style="fill:#189338;" d="M386.5,113.06c0.07-0.69-0.01-1.35-0.2-1.96c0.86,0.86,2.05,1.4,3.38,1.41c2.42,0.02,4.51-1.81,4.81-4.22
					c0.35-2.8-1.75-5.26-4.52-5.41c-1.24-0.07-2.39,0.34-3.28,1.06c0.26-0.59,0.41-1.24,0.41-1.93c0.01-2.43-1.83-4.52-4.24-4.81
					c-2.79-0.33-5.24,1.76-5.39,4.53c-0.12,2.28,1.36,4.28,3.47,4.89c-2.1-0.25-4.32-0.8-6.33-2.41c-0.24-0.19-0.59-0.03-0.61,0.27
					l-0.25,4.71c-0.02,0.3,0.32,0.5,0.58,0.33c2.17-1.38,4.44-1.69,6.55-1.71c-2.16,0.38-3.85,2.2-3.97,4.49
					c-0.15,2.76,2.06,5.11,4.87,5.08C384.19,117.35,386.25,115.47,386.5,113.06z"/>
				<path style="fill:#189338;" d="M294.17,87.73L294.17,87.73L294.17,87.73c-0.12,0.09-0.24,0.18-0.35,0.28l-9.51,7.68
					c-0.17,0.13-0.19,0.38-0.04,0.54l8.21,9.18l0,0c0.86,1.01,2.12,1.66,3.56,1.71c2.46,0.07,4.61-1.75,4.94-4.18
					c0.33-2.4-1.14-4.59-3.33-5.29c2.17,0.31,4.47,0.96,6.49,2.75c0.15,0.14,0.4,0.04,0.41-0.16l0.42-5.23
					c0.02-0.21-0.21-0.34-0.38-0.23c-2.28,1.44-4.66,1.71-6.85,1.67c2.27-0.34,4.07-2.26,4.13-4.68c0.06-2.45-1.75-4.59-4.18-4.92
					C296.4,86.65,295.15,87.01,294.17,87.73z"/>
				<path style="fill:#189338;" d="M398.03,158.52l-11.67-4.69c-0.25-0.1-0.41-0.35-0.39-0.62l0.87-12.54c0.02-0.25,0.28-0.41,0.51-0.32
					l11.66,4.67c0.25,0.1,0.41,0.35,0.39,0.62l-0.86,12.55C398.52,158.45,398.26,158.62,398.03,158.52z"/>
			</g>
		</g>
	</g>
</g>
</svg>
