<?xml version="1.0" encoding="utf-8"?>
<!-- Generator: Adobe Illustrator 24.0.1, SVG Export Plug-In . SVG Version: 6.00 Build 0)  -->
<svg version="1.1" id="Layer_1" xmlns="http://www.w3.org/2000/svg" xmlns:xlink="http://www.w3.org/1999/xlink" x="0px" y="0px"
	 viewBox="0 0 571.23 303.18" style="enable-background:new 0 0 571.23 303.18;" xml:space="preserve">
<g>
	<rect x="0.6" y="0.6" style="fill:none;" width="570.03" height="301.98"/>
	<g>
		<g>
			<g>
				<path style="fill:#FFFFFF;" d="M206.7,201.55c0.22-18.36,0.41-34.21-20.87-36.94c-6.4-0.82-12.23-1.03-17.82-0.62l-1.47,0.11l0.03,15.62
					l1.85-0.2c6.2-0.67,11.15-0.77,14.72-0.32c2.39,0.31,4.88,1.06,4.84,2.37c-0.1,0.03-0.27,0.07-0.55,0.13
					c-2.17,0.43-4.23,0.8-6.15,1.15c-14.41,2.64-23.1,4.24-25.02,19.21c-1.78,13.9,4.76,23.18,17.51,24.81
					c6.17,0.79,12.16-0.77,17.85-4.63l0.61,6.22l15.3-3.9l-0.14-1.25C206.53,215.71,206.62,208.18,206.7,201.55z M176.84,212.45
					c-3.27-0.42-4.63-2.99-4.04-7.65l0.09-0.69c0.69-4.15,6.15-7,16.23-8.46l0.88,13.51C183.8,211.81,178.97,212.73,176.84,212.45z"
					/>
			</g>
			<g>
				<g>
					<path style="fill:#FFFFFF;" d="M285.64,168.47v-1.51l-20.66-1.77v33c0,9.49-2.1,9.49-3.36,9.49c-3.3,0-4.04-7.03-4.04-9.49v-23.91
						l-19.85,0.16v22.26c0,6.28-1.01,10.03-2.69,10.03c-0.63,0-2.55,0-2.55-6.77c0-0.8,0.05-1.59,0.08-2.22
						c0.03-0.44,0.05-0.81,0.05-1.05v-29.43l-18.17-1.94l-0.3,1.45c-1.11,5.29-1.66,12.91-1.66,23.28v2.98
						c0,23.24,7.77,35.03,23.08,35.03c3,0,9.88-1.41,13.86-13.5c2.45,5.38,7.29,13.91,14.74,13.91c21.73,0,21.73-27.21,21.73-38.83
						c0-5.85-0.1-10.86-0.17-14.88C285.68,172.18,285.64,170.06,285.64,168.47z"/>
				</g>
			</g>
			<g>
				<polygon style="fill:#FFFFFF;" points="393.23,170.05 380.78,157.36 365.09,172.49 364.03,137.14 345.18,138.27 349.64,228.47 
					368.58,226.71 367.88,211.55 382.21,227.11 394.95,214.63 370.19,191.99 				"/>
			</g>
			<g>
				<path style="fill:#FFFFFF;" d="M438.59,206.48c-5.36,3.59-14.03,6.77-19.26,5.88c-1.26-0.21-4.92-0.83-4.94-6.88
					c19.75,0.83,30.83-2.78,32.99-10.87l0.38-2.23c2.43-16.12-3.37-23.85-20-26.66c-23.38-3.95-28.82,11.85-30.89,24.08
					c-3.37,19.97,4.99,35.73,20.35,38.32c7.96,1.35,18.56-1.4,28.33-7.33l1.18-0.72l-6.49-14.69L438.59,206.48z M433.18,187.03
					c-0.69,4.08-12.54,4.75-19,4.05c0.41-4.84,0.5-5.4,0.57-5.83c0.59-3.48,6.75-4.84,12.14-3.93
					C429.51,181.76,433.78,183.46,433.18,187.03z"/>
			</g>
			<g>
				<path style="fill:#FFFFFF;" d="M495.22,171.97c-2.54-1.02-4.97-1.61-7.41-1.81c-0.34-0.03-0.68-0.02-1.01,0c-0.2,0.01-0.41,0.02-0.73,0
					c-5.91-0.05-11.64,2.01-16.75,6l0.36-10.08l-16.21-0.18l2.11,62.54l17.9,0.03l-1.16-23.45c-0.02-1.25-0.05-2.68,0.06-4.02
					c0.26-3.29,1.8-14.03,10.44-13.92l1.07,0.09c0.94,0.08,2.17,0.26,3.35,0.46c1.25,0.19,2.54,0.39,3.61,0.47l1.37,0.11l4.31-15.72
					L495.22,171.97z"/>
			</g>
			<g>
				<path style="fill:#FFFFFF;" d="M342.25,201.55c0.22-18.36,0.41-34.21-20.87-36.94c-6.4-0.82-12.23-1.03-17.82-0.62l-1.47,0.11l0.04,15.62
					l1.85-0.2c6.2-0.67,11.15-0.77,14.72-0.32c2.39,0.31,4.88,1.06,4.84,2.37c-0.1,0.03-0.27,0.07-0.55,0.13
					c-2.18,0.43-4.23,0.8-6.15,1.15c-14.41,2.64-23.1,4.24-25.02,19.21c-1.78,13.9,4.76,23.18,17.51,24.81
					c6.17,0.79,12.16-0.77,17.85-4.63l0.61,6.22l15.3-3.9l-0.14-1.25C342.08,215.71,342.17,208.18,342.25,201.55z M312.39,212.45
					c-3.27-0.42-4.63-2.99-4.04-7.65l0.09-0.69c0.69-4.15,6.15-7,16.23-8.46l0.88,13.51C319.36,211.81,314.52,212.73,312.39,212.45z
					"/>
			</g>
			<g>
				<path style="fill:#FFFFFF;" d="M144.07,217.63c1.58-1.97,2.84-3.95,3.78-5.89c0.94-1.99,1.61-3.74,1.98-5.19c0.1-1.07,0.22-2.82,0.32-5.01
					c0.1-2.13,0.13-5.2,0.1-9.42c-0.03-4.1-0.13,0.86-0.3-6.04c-0.06-2.33-0.13-3.51-0.21-9.07c-0.15-9.79-0.35-30.68-0.59-37.92
					l-25.69,4.15l3.29,56.56c0.15,2.29-0.13,4.24-0.85,5.78c-0.72,1.56-1.46,2.63-2.28,3.29c-0.6,0.5-0.87,0.72-0.95,0.79l-0.5,0.44
					l-0.49,0.01c-0.07,0.02-0.17,0.05-0.28,0.09c-0.8,0.27-1.66,0.22-2.6-0.1c-0.99-0.34-1.8-1.16-2.36-2.44
					c-0.36-0.81-0.61-4.69-0.74-11.53c-0.03-1.49,0.14-3.29,0.51-5.49l-18.64,5.48c-0.6,5.5-0.37,15.22,0.48,17.97
					c0.95,3.13,2.16,5.59,3.59,7.33c1.41,1.73,3.46,3.27,6.08,4.6c4.45,1.53,8.75,2.37,12.55,2.43l0.66,0.01
					c3.52,0,6.74-0.45,9.55-1.33c2.98-0.94,5.61-2.27,7.81-3.95C140.55,221.45,142.49,219.59,144.07,217.63z"/>
			</g>
		</g>
		<g>
			<g>
				<path style="fill:#C91517;" d="M126.66,131.93l3.24-14.25c0-0.01,0-0.01,0-0.02c0-0.02,0.01-0.03,0.01-0.05c0-0.01,0.01-0.02,0.01-0.02
					l0.74-3.25c-0.05-0.03-0.09-0.06-0.14-0.09c-4.49-2.88-8.57-4.86-12.26-6.12c-21.39-7.29-29.83,9.67-32.02,15.49
					c-0.42,1.13-0.62,1.85-0.62,1.88c0,0,0.57-0.42,1.59-1.04c5.41-3.29,23.38-12.14,32.73,8.54l5.8-0.94L126.66,131.93z"/>
				<path style="fill:#FFCC07;" d="M125.73,132.08c-1.45-10.63-4.22-18.35-7.48-23.94c-6.7-11.53-15.46-14.1-18.95-14.68
					c-0.97-0.16-1.53-0.17-1.53-0.17c0.07-0.02,0.61-0.26,1.53-0.58c5.3-1.88,23.07-6.76,35.77,8.23c1.76,2.07,3.42,4.53,4.93,7.42
					c-1.6,2.7,0.01,7.46-1.45,10.94c0,0,4.02,3.28,0.96,10.44c-0.02,0.04-0.05,0.08-0.07,0.12l-10.54,1.71l-2.24,0.36L125.73,132.08
					z"/>
				<path style="fill:#FFCC07;" d="M151.75,127.89L151.75,127.89c8.71-20.06,26.36-11.99,30.56-9.7c0.6,0.32,0.92,0.53,0.92,0.53
					c-0.02-0.02-0.2-0.39-0.56-0.99c-2.59-4.42-14.06-21.78-31.94-11.46c-0.93,0.53-1.88,1.15-2.84,1.84
					c-0.34,1.49-0.03,10.52,0.45,16.44l-0.37-0.06c0,0.01,0.37,0.05,0.37,0.06c0.12,1.52,0.68,2.85,0.68,3.79L151.75,127.89z"/>
				<path style="fill:#C91517;" d="M139.44,129.87l9.92-1.6c-0.08-1.3-0.13-2.55-0.14-3.77c-0.01-0.01-0.01-0.01,0-0.02v-0.01c0,0,0,0,0-0.01
					v-0.01c-0.16-7.3,0.46-13.29,1.52-18.2c2.88-13.32,9.04-18.66,11.94-20.52c0.94-0.61,1.52-0.85,1.58-0.88
					c-0.06-0.01-0.72-0.1-1.82-0.16c-5-0.22-19.12,0.61-27.36,16.26c-1.89,3.59-3.48,7.98-4.57,13.31c-0.22,1.08-0.42,2.18-0.6,3.34
					c0,0.01-0.01,0.02-0.01,0.02c0,0.02-0.01,0.03-0.01,0.05c0,0.01,0,0.01,0,0.02c-0.62,4.09-0.98,8.71-1,13.88L139.44,129.87z"/>
				<path style="fill:#D70F19;" d="M86.17,123.26L86.17,123.26z"/>
			</g>
		</g>
		<g>
			<path style="fill:#189338;" d="M175.51,122.83L175.51,122.83c0.25-3.2,3.31-5.41,6.43-4.64l0.99,0.25l-0.09-1.02
				c-0.28-3.2,2.37-5.88,5.57-5.64l0,0c2.86,0.22,5,2.72,4.77,5.58l-0.9,11.63c-0.01,0.19-0.18,0.34-0.38,0.32l-11.63-0.9
				C177.43,128.19,175.29,125.69,175.51,122.83z"/>
			<path style="fill:#189338;" d="M86.79,98.96c-0.07-0.64,0.01-1.26,0.19-1.84c-0.81,0.81-1.92,1.31-3.17,1.32c-2.27,0.02-4.23-1.7-4.5-3.95
				c-0.32-2.62,1.64-4.93,4.23-5.07c1.16-0.06,2.24,0.32,3.07,0.99c-0.24-0.55-0.38-1.16-0.39-1.81c-0.01-2.27,1.71-4.23,3.97-4.5
				c2.61-0.31,4.91,1.65,5.05,4.24c0.12,2.14-1.28,4-3.25,4.58c1.97-0.23,4.05-0.75,5.93-2.25c0.22-0.18,0.55-0.03,0.57,0.25
				l0.24,4.41c0.02,0.28-0.3,0.46-0.54,0.31c-2.03-1.29-4.16-1.58-6.14-1.6c2.02,0.36,3.6,2.06,3.72,4.2
				c0.14,2.59-1.93,4.78-4.56,4.76C88.95,102.98,87.03,101.22,86.79,98.96z"/>
			<path style="fill:#189338;" d="M173.22,75.25L173.22,75.25L173.22,75.25c0.11,0.08,0.22,0.17,0.32,0.26l8.91,7.19
				c0.16,0.13,0.17,0.36,0.04,0.5l-7.69,8.6l0,0c-0.8,0.94-1.98,1.56-3.33,1.6c-2.3,0.07-4.31-1.64-4.63-3.91
				c-0.31-2.25,1.07-4.3,3.11-4.95c-2.03,0.29-4.18,0.9-6.08,2.58c-0.14,0.13-0.37,0.04-0.39-0.15l-0.4-4.9
				c-0.02-0.19,0.19-0.32,0.36-0.21c2.14,1.35,4.36,1.6,6.41,1.56c-2.12-0.32-3.81-2.11-3.87-4.38c-0.06-2.29,1.64-4.29,3.91-4.61
				C171.13,74.24,172.3,74.58,173.22,75.25z"/>
			<path style="fill:#189338;" d="M76,141.52l10.92-4.39c0.23-0.09,0.38-0.33,0.36-0.58l-0.81-11.73c-0.02-0.24-0.26-0.39-0.48-0.3
				l-10.92,4.38c-0.23,0.09-0.38,0.33-0.36,0.58l0.81,11.74C75.54,141.45,75.78,141.61,76,141.52z"/>
		</g>
	</g>
</g>
</svg>
